<svg xmlns="http://www.w3.org/2000/svg" version="1.1" xmlns:xlink="http://www.w3.org/1999/xlink" xmlns:svgjs="http://svgjs.com/svgjs" width="1440" height="560" preserveAspectRatio="none" viewBox="0 0 1440 560"><g mask="url(&quot;#SvgjsMask1000&quot;)" fill="none"><rect width="1440" height="560" x="0" y="0" fill="#0e2a47"></rect><path d="M46.7 188.84L111.65 226.34L111.65 301.34L46.7 338.84L-18.25 301.34L-18.25 226.34zM111.65 526.34L176.61 563.84L176.61 638.84L111.65 676.34L46.7 638.84L46.7 563.84zM241.56 76.34L306.51 113.84L306.51 188.84L241.56 226.34L176.61 188.84L176.61 113.84zM176.61 188.84L241.56 226.34L241.56 301.34L176.61 338.84L111.65 301.34L111.65 226.34zM241.56 301.34L306.51 338.84L306.51 413.84L241.56 451.34L176.61 413.84L176.61 338.84zM306.51 -36.16L371.47 1.34L371.47 76.34L306.51 113.84L241.56 76.34L241.56 1.34zM306.51 188.84L371.47 226.34L371.47 301.34L306.51 338.84L241.56 301.34L241.56 226.34zM306.51 413.84L371.47 451.34L371.47 526.34L306.51 563.84L241.56 526.34L241.56 451.34zM501.38 76.34L566.33 113.84L566.33 188.84L501.38 226.34L436.42 188.84L436.42 113.84zM436.42 188.84L501.38 226.34L501.38 301.34L436.42 338.84L371.47 301.34L371.47 226.34zM501.38 301.34L566.33 338.84L566.33 413.84L501.38 451.34L436.42 413.84L436.42 338.84zM436.42 413.84L501.38 451.34L501.38 526.34L436.42 563.84L371.47 526.34L371.47 451.34zM501.38 526.34L566.33 563.84L566.33 638.84L501.38 676.34L436.42 638.84L436.42 563.84zM566.33 -36.16L631.28 1.34L631.28 76.34L566.33 113.84L501.38 76.34L501.38 1.34zM696.24 413.84L761.19 451.34L761.19 526.34L696.24 563.84L631.28 526.34L631.28 451.34zM761.19 526.34L826.15 563.84L826.15 638.84L761.19 676.34L696.24 638.84L696.24 563.84zM891.1 76.34L956.05 113.84L956.05 188.84L891.1 226.34L826.14 188.84L826.14 113.84zM891.1 301.34L956.05 338.84L956.05 413.84L891.1 451.34L826.14 413.84L826.14 338.84zM891.1 526.34L956.05 563.84L956.05 638.84L891.1 676.34L826.14 638.84L826.14 563.84zM1021.01 76.34L1085.96 113.84L1085.96 188.84L1021.01 226.34L956.05 188.84L956.05 113.84zM956.05 188.84L1021.01 226.34L1021.01 301.34L956.05 338.84L891.1 301.34L891.1 226.34zM1021.01 301.34L1085.96 338.84L1085.96 413.84L1021.01 451.34L956.05 413.84L956.05 338.84zM956.05 413.84L1021.01 451.34L1021.01 526.34L956.05 563.84L891.1 526.34L891.1 451.34zM1085.96 -36.16L1150.91 1.34L1150.91 76.34L1085.96 113.84L1021.01 76.34L1021.01 1.34zM1085.96 188.84L1150.91 226.34L1150.91 301.34L1085.96 338.84L1021.01 301.34L1021.01 226.34zM1150.91 301.34L1215.87 338.84L1215.87 413.84L1150.91 451.34L1085.96 413.84L1085.96 338.84zM1280.82 76.34L1345.77 113.84L1345.77 188.84L1280.82 226.34L1215.87 188.84L1215.87 113.84zM1280.82 301.34L1345.77 338.84L1345.77 413.84L1280.82 451.34L1215.87 413.84L1215.87 338.84zM1215.87 413.84L1280.82 451.34L1280.82 526.34L1215.87 563.84L1150.91 526.34L1150.91 451.34zM1345.78 413.84L1410.73 451.34L1410.73 526.34L1345.78 563.84L1280.82 526.34L1280.82 451.34zM1475.68 188.84L1540.64 226.34L1540.64 301.34L1475.68 338.84L1410.73 301.34L1410.73 226.34zM1540.64 301.34L1605.59 338.84L1605.59 413.84L1540.64 451.34L1475.68 413.84L1475.68 338.84zM1475.68 413.84L1540.64 451.34L1540.64 526.34L1475.68 563.84L1410.73 526.34L1410.73 451.34z" stroke="#03305d" stroke-width="2"></path><path d="M39.2 188.84 a7.5 7.5 0 1 0 15 0 a7.5 7.5 0 1 0 -15 0zM104.15 226.34 a7.5 7.5 0 1 0 15 0 a7.5 7.5 0 1 0 -15 0zM104.15 301.34 a7.5 7.5 0 1 0 15 0 a7.5 7.5 0 1 0 -15 0zM39.2 338.84 a7.5 7.5 0 1 0 15 0 a7.5 7.5 0 1 0 -15 0zM-25.75 301.34 a7.5 7.5 0 1 0 15 0 a7.5 7.5 0 1 0 -15 0zM-25.75 226.34 a7.5 7.5 0 1 0 15 0 a7.5 7.5 0 1 0 -15 0zM104.15 526.34 a7.5 7.5 0 1 0 15 0 a7.5 7.5 0 1 0 -15 0zM169.11 563.84 a7.5 7.5 0 1 0 15 0 a7.5 7.5 0 1 0 -15 0zM169.11 638.84 a7.5 7.5 0 1 0 15 0 a7.5 7.5 0 1 0 -15 0zM104.15 676.34 a7.5 7.5 0 1 0 15 0 a7.5 7.5 0 1 0 -15 0zM39.2 638.84 a7.5 7.5 0 1 0 15 0 a7.5 7.5 0 1 0 -15 0zM39.2 563.84 a7.5 7.5 0 1 0 15 0 a7.5 7.5 0 1 0 -15 0zM234.06 76.34 a7.5 7.5 0 1 0 15 0 a7.5 7.5 0 1 0 -15 0zM299.01 113.84 a7.5 7.5 0 1 0 15 0 a7.5 7.5 0 1 0 -15 0zM299.01 188.84 a7.5 7.5 0 1 0 15 0 a7.5 7.5 0 1 0 -15 0zM234.06 226.34 a7.5 7.5 0 1 0 15 0 a7.5 7.5 0 1 0 -15 0zM169.11 188.84 a7.5 7.5 0 1 0 15 0 a7.5 7.5 0 1 0 -15 0zM169.11 113.84 a7.5 7.5 0 1 0 15 0 a7.5 7.5 0 1 0 -15 0zM234.06 301.34 a7.5 7.5 0 1 0 15 0 a7.5 7.5 0 1 0 -15 0zM169.11 338.84 a7.5 7.5 0 1 0 15 0 a7.5 7.5 0 1 0 -15 0zM299.01 338.84 a7.5 7.5 0 1 0 15 0 a7.5 7.5 0 1 0 -15 0zM299.01 413.84 a7.5 7.5 0 1 0 15 0 a7.5 7.5 0 1 0 -15 0zM234.06 451.34 a7.5 7.5 0 1 0 15 0 a7.5 7.5 0 1 0 -15 0zM169.11 413.84 a7.5 7.5 0 1 0 15 0 a7.5 7.5 0 1 0 -15 0zM299.01 -36.16 a7.5 7.5 0 1 0 15 0 a7.5 7.5 0 1 0 -15 0zM363.97 1.34 a7.5 7.5 0 1 0 15 0 a7.5 7.5 0 1 0 -15 0zM363.97 76.34 a7.5 7.5 0 1 0 15 0 a7.5 7.5 0 1 0 -15 0zM234.06 1.34 a7.5 7.5 0 1 0 15 0 a7.5 7.5 0 1 0 -15 0zM363.97 226.34 a7.5 7.5 0 1 0 15 0 a7.5 7.5 0 1 0 -15 0zM363.97 301.34 a7.5 7.5 0 1 0 15 0 a7.5 7.5 0 1 0 -15 0zM363.97 451.34 a7.5 7.5 0 1 0 15 0 a7.5 7.5 0 1 0 -15 0zM363.97 526.34 a7.5 7.5 0 1 0 15 0 a7.5 7.5 0 1 0 -15 0zM299.01 563.84 a7.5 7.5 0 1 0 15 0 a7.5 7.5 0 1 0 -15 0zM234.06 526.34 a7.5 7.5 0 1 0 15 0 a7.5 7.5 0 1 0 -15 0zM493.88 76.34 a7.5 7.5 0 1 0 15 0 a7.5 7.5 0 1 0 -15 0zM558.83 113.84 a7.5 7.5 0 1 0 15 0 a7.5 7.5 0 1 0 -15 0zM558.83 188.84 a7.5 7.5 0 1 0 15 0 a7.5 7.5 0 1 0 -15 0zM493.88 226.34 a7.5 7.5 0 1 0 15 0 a7.5 7.5 0 1 0 -15 0zM428.92 188.84 a7.5 7.5 0 1 0 15 0 a7.5 7.5 0 1 0 -15 0zM428.92 113.84 a7.5 7.5 0 1 0 15 0 a7.5 7.5 0 1 0 -15 0zM493.88 301.34 a7.5 7.5 0 1 0 15 0 a7.5 7.5 0 1 0 -15 0zM428.92 338.84 a7.5 7.5 0 1 0 15 0 a7.5 7.5 0 1 0 -15 0zM558.83 338.84 a7.5 7.5 0 1 0 15 0 a7.5 7.5 0 1 0 -15 0zM558.83 413.84 a7.5 7.5 0 1 0 15 0 a7.5 7.5 0 1 0 -15 0zM493.88 451.34 a7.5 7.5 0 1 0 15 0 a7.5 7.5 0 1 0 -15 0zM428.92 413.84 a7.5 7.5 0 1 0 15 0 a7.5 7.5 0 1 0 -15 0zM493.88 526.34 a7.5 7.5 0 1 0 15 0 a7.5 7.5 0 1 0 -15 0zM428.92 563.84 a7.5 7.5 0 1 0 15 0 a7.5 7.5 0 1 0 -15 0zM558.83 563.84 a7.5 7.5 0 1 0 15 0 a7.5 7.5 0 1 0 -15 0zM558.83 638.84 a7.5 7.5 0 1 0 15 0 a7.5 7.5 0 1 0 -15 0zM493.88 676.34 a7.5 7.5 0 1 0 15 0 a7.5 7.5 0 1 0 -15 0zM428.92 638.84 a7.5 7.5 0 1 0 15 0 a7.5 7.5 0 1 0 -15 0zM558.83 -36.16 a7.5 7.5 0 1 0 15 0 a7.5 7.5 0 1 0 -15 0zM623.78 1.34 a7.5 7.5 0 1 0 15 0 a7.5 7.5 0 1 0 -15 0zM623.78 76.34 a7.5 7.5 0 1 0 15 0 a7.5 7.5 0 1 0 -15 0zM493.88 1.34 a7.5 7.5 0 1 0 15 0 a7.5 7.5 0 1 0 -15 0zM688.74 413.84 a7.5 7.5 0 1 0 15 0 a7.5 7.5 0 1 0 -15 0zM753.69 451.34 a7.5 7.5 0 1 0 15 0 a7.5 7.5 0 1 0 -15 0zM753.69 526.34 a7.5 7.5 0 1 0 15 0 a7.5 7.5 0 1 0 -15 0zM688.74 563.84 a7.5 7.5 0 1 0 15 0 a7.5 7.5 0 1 0 -15 0zM623.78 526.34 a7.5 7.5 0 1 0 15 0 a7.5 7.5 0 1 0 -15 0zM623.78 451.34 a7.5 7.5 0 1 0 15 0 a7.5 7.5 0 1 0 -15 0zM818.65 563.84 a7.5 7.5 0 1 0 15 0 a7.5 7.5 0 1 0 -15 0zM818.65 638.84 a7.5 7.5 0 1 0 15 0 a7.5 7.5 0 1 0 -15 0zM753.69 676.34 a7.5 7.5 0 1 0 15 0 a7.5 7.5 0 1 0 -15 0zM688.74 638.84 a7.5 7.5 0 1 0 15 0 a7.5 7.5 0 1 0 -15 0zM883.6 76.34 a7.5 7.5 0 1 0 15 0 a7.5 7.5 0 1 0 -15 0zM948.55 113.84 a7.5 7.5 0 1 0 15 0 a7.5 7.5 0 1 0 -15 0zM948.55 188.84 a7.5 7.5 0 1 0 15 0 a7.5 7.5 0 1 0 -15 0zM883.6 226.34 a7.5 7.5 0 1 0 15 0 a7.5 7.5 0 1 0 -15 0zM818.64 188.84 a7.5 7.5 0 1 0 15 0 a7.5 7.5 0 1 0 -15 0zM818.64 113.84 a7.5 7.5 0 1 0 15 0 a7.5 7.5 0 1 0 -15 0zM883.6 301.34 a7.5 7.5 0 1 0 15 0 a7.5 7.5 0 1 0 -15 0zM948.55 338.84 a7.5 7.5 0 1 0 15 0 a7.5 7.5 0 1 0 -15 0zM948.55 413.84 a7.5 7.5 0 1 0 15 0 a7.5 7.5 0 1 0 -15 0zM883.6 451.34 a7.5 7.5 0 1 0 15 0 a7.5 7.5 0 1 0 -15 0zM818.64 413.84 a7.5 7.5 0 1 0 15 0 a7.5 7.5 0 1 0 -15 0zM818.64 338.84 a7.5 7.5 0 1 0 15 0 a7.5 7.5 0 1 0 -15 0zM883.6 526.34 a7.5 7.5 0 1 0 15 0 a7.5 7.5 0 1 0 -15 0zM948.55 563.84 a7.5 7.5 0 1 0 15 0 a7.5 7.5 0 1 0 -15 0zM948.55 638.84 a7.5 7.5 0 1 0 15 0 a7.5 7.5 0 1 0 -15 0zM883.6 676.34 a7.5 7.5 0 1 0 15 0 a7.5 7.5 0 1 0 -15 0zM818.64 638.84 a7.5 7.5 0 1 0 15 0 a7.5 7.5 0 1 0 -15 0zM818.64 563.84 a7.5 7.5 0 1 0 15 0 a7.5 7.5 0 1 0 -15 0zM1013.51 76.34 a7.5 7.5 0 1 0 15 0 a7.5 7.5 0 1 0 -15 0zM1078.46 113.84 a7.5 7.5 0 1 0 15 0 a7.5 7.5 0 1 0 -15 0zM1078.46 188.84 a7.5 7.5 0 1 0 15 0 a7.5 7.5 0 1 0 -15 0zM1013.51 226.34 a7.5 7.5 0 1 0 15 0 a7.5 7.5 0 1 0 -15 0zM1013.51 301.34 a7.5 7.5 0 1 0 15 0 a7.5 7.5 0 1 0 -15 0zM1078.46 338.84 a7.5 7.5 0 1 0 15 0 a7.5 7.5 0 1 0 -15 0zM1078.46 413.84 a7.5 7.5 0 1 0 15 0 a7.5 7.5 0 1 0 -15 0zM1013.51 451.34 a7.5 7.5 0 1 0 15 0 a7.5 7.5 0 1 0 -15 0zM1013.51 526.34 a7.5 7.5 0 1 0 15 0 a7.5 7.5 0 1 0 -15 0zM1078.46 -36.16 a7.5 7.5 0 1 0 15 0 a7.5 7.5 0 1 0 -15 0zM1143.41 1.34 a7.5 7.5 0 1 0 15 0 a7.5 7.5 0 1 0 -15 0zM1143.41 76.34 a7.5 7.5 0 1 0 15 0 a7.5 7.5 0 1 0 -15 0zM1013.51 1.34 a7.5 7.5 0 1 0 15 0 a7.5 7.5 0 1 0 -15 0zM1143.41 226.34 a7.5 7.5 0 1 0 15 0 a7.5 7.5 0 1 0 -15 0zM1143.41 301.34 a7.5 7.5 0 1 0 15 0 a7.5 7.5 0 1 0 -15 0zM1208.37 338.84 a7.5 7.5 0 1 0 15 0 a7.5 7.5 0 1 0 -15 0zM1208.37 413.84 a7.5 7.5 0 1 0 15 0 a7.5 7.5 0 1 0 -15 0zM1143.41 451.34 a7.5 7.5 0 1 0 15 0 a7.5 7.5 0 1 0 -15 0zM1273.32 76.34 a7.5 7.5 0 1 0 15 0 a7.5 7.5 0 1 0 -15 0zM1338.27 113.84 a7.5 7.5 0 1 0 15 0 a7.5 7.5 0 1 0 -15 0zM1338.27 188.84 a7.5 7.5 0 1 0 15 0 a7.5 7.5 0 1 0 -15 0zM1273.32 226.34 a7.5 7.5 0 1 0 15 0 a7.5 7.5 0 1 0 -15 0zM1208.37 188.84 a7.5 7.5 0 1 0 15 0 a7.5 7.5 0 1 0 -15 0zM1208.37 113.84 a7.5 7.5 0 1 0 15 0 a7.5 7.5 0 1 0 -15 0zM1273.32 301.34 a7.5 7.5 0 1 0 15 0 a7.5 7.5 0 1 0 -15 0zM1338.27 338.84 a7.5 7.5 0 1 0 15 0 a7.5 7.5 0 1 0 -15 0zM1338.27 413.84 a7.5 7.5 0 1 0 15 0 a7.5 7.5 0 1 0 -15 0zM1273.32 451.34 a7.5 7.5 0 1 0 15 0 a7.5 7.5 0 1 0 -15 0zM1273.32 526.34 a7.5 7.5 0 1 0 15 0 a7.5 7.5 0 1 0 -15 0zM1208.37 563.84 a7.5 7.5 0 1 0 15 0 a7.5 7.5 0 1 0 -15 0zM1143.41 526.34 a7.5 7.5 0 1 0 15 0 a7.5 7.5 0 1 0 -15 0zM1338.28 413.84 a7.5 7.5 0 1 0 15 0 a7.5 7.5 0 1 0 -15 0zM1403.23 451.34 a7.5 7.5 0 1 0 15 0 a7.5 7.5 0 1 0 -15 0zM1403.23 526.34 a7.5 7.5 0 1 0 15 0 a7.5 7.5 0 1 0 -15 0zM1338.28 563.84 a7.5 7.5 0 1 0 15 0 a7.5 7.5 0 1 0 -15 0zM1468.18 188.84 a7.5 7.5 0 1 0 15 0 a7.5 7.5 0 1 0 -15 0zM1533.14 226.34 a7.5 7.5 0 1 0 15 0 a7.5 7.5 0 1 0 -15 0zM1533.14 301.34 a7.5 7.5 0 1 0 15 0 a7.5 7.5 0 1 0 -15 0zM1468.18 338.84 a7.5 7.5 0 1 0 15 0 a7.5 7.5 0 1 0 -15 0zM1403.23 301.34 a7.5 7.5 0 1 0 15 0 a7.5 7.5 0 1 0 -15 0zM1403.23 226.34 a7.5 7.5 0 1 0 15 0 a7.5 7.5 0 1 0 -15 0zM1598.09 338.84 a7.5 7.5 0 1 0 15 0 a7.5 7.5 0 1 0 -15 0zM1598.09 413.84 a7.5 7.5 0 1 0 15 0 a7.5 7.5 0 1 0 -15 0zM1533.14 451.34 a7.5 7.5 0 1 0 15 0 a7.5 7.5 0 1 0 -15 0zM1468.18 413.84 a7.5 7.5 0 1 0 15 0 a7.5 7.5 0 1 0 -15 0zM1533.14 526.34 a7.5 7.5 0 1 0 15 0 a7.5 7.5 0 1 0 -15 0zM1468.18 563.84 a7.5 7.5 0 1 0 15 0 a7.5 7.5 0 1 0 -15 0z" fill="#03305d"></path><path d="M167.01 363.25L210.31 388.25L210.31 438.25L167.01 463.25L123.71 438.25L123.71 388.25zM210.31 -11.75L253.61 13.25L253.61 63.25L210.31 88.25L167.01 63.25L167.01 13.25zM253.61 213.25L296.92 238.25L296.92 288.25L253.61 313.25L210.31 288.25L210.31 238.25zM210.31 288.25L253.61 313.25L253.61 363.25L210.31 388.25L167.01 363.25L167.01 313.25zM210.31 438.25L253.61 463.25L253.61 513.25L210.31 538.25L167.01 513.25L167.01 463.25zM426.82 213.25L470.13 238.25L470.13 288.25L426.82 313.25L383.52 288.25L383.52 238.25zM383.52 288.25L426.82 313.25L426.82 363.25L383.52 388.25L340.22 363.25L340.22 313.25zM470.13 138.25L513.43 163.25L513.43 213.25L470.13 238.25L426.82 213.25L426.82 163.25zM513.43 213.25L556.73 238.25L556.73 288.25L513.43 313.25L470.13 288.25L470.13 238.25zM859.85 213.25L903.15 238.25L903.15 288.25L859.85 313.25L816.55 288.25L816.55 238.25zM946.45 63.25L989.76 88.25L989.76 138.25L946.45 163.25L903.15 138.25L903.15 88.25zM903.15 138.25L946.45 163.25L946.45 213.25L903.15 238.25L859.85 213.25L859.85 163.25zM1033.06 513.25L1076.36 538.25L1076.36 588.25L1033.06 613.25L989.76 588.25L989.76 538.25zM1119.66 63.25L1162.96 88.25L1162.96 138.25L1119.66 163.25L1076.36 138.25L1076.36 88.25zM1162.96 138.25L1206.27 163.25L1206.27 213.25L1162.96 238.25L1119.66 213.25L1119.66 163.25zM1206.27 213.25L1249.57 238.25L1249.57 288.25L1206.27 313.25L1162.96 288.25L1162.96 238.25zM1162.96 438.25L1206.27 463.25L1206.27 513.25L1162.96 538.25L1119.66 513.25L1119.66 463.25zM1292.87 63.25L1336.17 88.25L1336.17 138.25L1292.87 163.25L1249.57 138.25L1249.57 88.25zM1249.57 138.25L1292.87 163.25L1292.87 213.25L1249.57 238.25L1206.27 213.25L1206.27 163.25zM1249.57 288.25L1292.87 313.25L1292.87 363.25L1249.57 388.25L1206.27 363.25L1206.27 313.25zM1292.87 513.25L1336.17 538.25L1336.17 588.25L1292.87 613.25L1249.57 588.25L1249.57 538.25zM1336.17 138.25L1379.48 163.25L1379.48 213.25L1336.17 238.25L1292.87 213.25L1292.87 163.25zM1379.48 213.25L1422.78 238.25L1422.78 288.25L1379.48 313.25L1336.17 288.25L1336.17 238.25zM1379.48 513.25L1422.78 538.25L1422.78 588.25L1379.48 613.25L1336.17 588.25L1336.17 538.25z" stroke="rgba(6, 80, 156, 0.93)" stroke-width="2"></path></g><defs><mask id="SvgjsMask1000"><rect width="1440" height="560" fill="#ffffff"></rect></mask></defs></svg>